# xmcd
#
# Track frame offsets: 
#        150
#        19941
#        31566
#        46359
#        65419
#        76077
#        98004
#        115206
#        139762
#        158813
#
# Disc length: 2491 seconds
#
# Revision: 0
# Processed by: cddbd v1.5.2PL0 Copyright (c) Steve Scherf et al.
# Submitted via: ExactAudioCopy v1.3
#
DISCID=7109b90a
DTITLE=Michael Landau - Rock Bottom
DYEAR=2018
DGENRE=Blues
TTITLE0=Squirrels
TTITLE1=Bad Friend
TTITLE2=Gettin Old
TTITLE3=We All Feel The Same
TTITLE4=We're Alright
TTITLE5=One Tear Away
TTITLE6=Poor Dear
TTITLE7=Freedom
TTITLE8=Heaven In The Alley
TTITLE9=Speak Now, Make Your Peace
EXTD=
EXTT0=
EXTT1=
EXTT2=
EXTT3=
EXTT4=
EXTT5=
EXTT6=
EXTT7=
EXTT8=
EXTT9=
PLAYORDER=
